<?xml version="1.0" encoding="UTF-8" standalone="no"?>
<svg
   viewBox="0 0 320 80"
   width="320"
   height="80"
   class="type_dark_blue_orange"
   version="1.1"
   id="svg73"
   sodipodi:docname="frame-title-social-links.svg"
   inkscape:version="1.1.2 (0a00cf5339, 2022-02-04)"
   inkscape:export-filename="/home/madbrozzer/soft/mbr-stream/static/images/frame-title-social-links.png"
   inkscape:export-xdpi="96"
   inkscape:export-ydpi="96"
   xmlns:inkscape="http://www.inkscape.org/namespaces/inkscape"
   xmlns:sodipodi="http://sodipodi.sourceforge.net/DTD/sodipodi-0.dtd"
   xmlns="http://www.w3.org/2000/svg"
   xmlns:svg="http://www.w3.org/2000/svg">
  <sodipodi:namedview
     id="namedview75"
     pagecolor="#505050"
     bordercolor="#eeeeee"
     borderopacity="1"
     inkscape:pageshadow="0"
     inkscape:pageopacity="0"
     inkscape:pagecheckerboard="0"
     showgrid="false"
     inkscape:zoom="1.4407301"
     inkscape:cx="157.55901"
     inkscape:cy="25.334378"
     inkscape:window-width="1856"
     inkscape:window-height="1016"
     inkscape:window-x="64"
     inkscape:window-y="27"
     inkscape:window-maximized="1"
     inkscape:current-layer="svg73" />
  <style
     id="style2">.placeholder{fill:none;}.background{fill:none;opacity:0.8;}.glow{fill:yellow;filter:url(#wire-glow);}.wire{fill:white;}.frame{fill:#ff6633;stroke:none;}.dark{fill:#000;opacity:0.2;}.dark2{fill:#000;opacity:0.35;}.light{fill:#fff;opacity:0.2;}.light2{fill:#fff;opacity:0.35;}.type_dark_blue_orange .background{fill:#000022;}</style>
  <defs
     id="defs7">
    <filter
       id="wire-glow"
       x="-0.012692308"
       y="-0.054999999"
       width="1.0253846"
       height="1.11">
      <feGaussianBlur
         stdDeviation="1.65"
         id="feGaussianBlur4" />
    </filter>
    <filter
       inkscape:collect="always"
       style="color-interpolation-filters:sRGB"
       id="filter33080"
       x="-0.070906779"
       y="-0.75768782"
       width="1.1418136"
       height="2.5153756">
      <feGaussianBlur
         inkscape:collect="always"
         stdDeviation="5.1967529"
         id="feGaussianBlur33082" />
    </filter>
  </defs>
  <g
     id="g17">
    <rect
       class="placeholder"
       width="320"
       height="80"
       x="0"
       y="0"
       id="rect9" />
    <path
       class="background"
       d="M 6,6 H 310 l 4,4 V 74 H 6 Z"
       id="path11" />
    <path
       class="glow"
       d="M 4,4 V 76 H 316 V 9 l -5,-5 z m 2,2 H 310 l 4,4 V 74 H 6 Z"
       id="path13" />
    <path
       class="wire"
       d="M 4,4 V 76 H 316 V 9 l -5,-5 z m 2,2 H 310 l 4,4 V 74 H 6 Z"
       id="path15" />
  </g>
  <g
     transform="translate(1, 1)"
     id="g33">
    <path
       class="frame"
       d="M 0,16 V 0 h 176 l -8,8 H 8 v 8 z"
       id="path19" />
    <path
       class="dark2"
       d="m 168,8 8,-8 -2.4,1 -6,6 z"
       id="path21" />
    <path
       class="dark"
       d="M 8,8 H 168 L 167.6,7 H 7 Z"
       id="path23" />
    <path
       class="dark"
       d="M 8,16 V 8 L 7,7 v 8 z"
       id="path25" />
    <path
       class="dark"
       d="M 7,15 H 1 l -1,1 h 8 z"
       id="path27" />
    <path
       class="light"
       d="M 0,0 V 16 L 1,15 V 1 Z"
       id="path29" />
    <path
       class="light"
       d="M 1,1 H 173.6 L 176,0 H 0 Z"
       id="path31" />
  </g>
  <g
     transform="translate(240,1)"
     id="g45">
    <path
       class="frame"
       d="M 8,0 H 40 L 32,8 H 0 Z"
       id="path35" />
    <path
       class="light2"
       d="M 2.4,7 8.4,1 8,0 0,8 Z"
       id="path37" />
    <path
       class="dark"
       d="M 31.6,7 H 2.4 L 0,8 h 32 z"
       id="path39" />
    <path
       class="dark2"
       d="m 37.6,1 -6,6 0.4,1 8,-8 z"
       id="path41" />
    <path
       class="light"
       d="M 8.4,1 H 37.6 L 40,0 H 8 Z"
       id="path43" />
  </g>
  <g
     transform="translate(1, 71)"
     id="g57">
    <path
       class="frame"
       d="M 0,0 V 8 H 24 L 32,0 Z"
       id="path47" />
    <path
       class="dark2"
       d="m 29.6,1 -6,6 0.4,1 8,-8 z"
       id="path49" />
    <path
       class="light"
       d="M 32,0 H 0 l 1,1 h 28.6 z"
       id="path51" />
    <path
       class="dark"
       d="M 0,8 H 24 L 23.6,7 H 1 Z"
       id="path53" />
    <path
       class="light"
       d="M 0,0 V 8 L 1,7 V 1 Z"
       id="path55" />
  </g>
  <g
     transform="translate(143, 63)"
     id="g71">
    <path
       class="frame"
       d="m 176,0 -8,8 H 8 l -8,8 h 176 z"
       id="path59" />
    <path
       class="light"
       d="m 8.4,9 h 160 L 168,8 H 8 Z"
       id="path61" />
    <path
       class="light2"
       d="M 2.4,15 8.4,9 8,8 0,16 Z"
       id="path63" />
    <path
       class="dark"
       d="M 175,2.4 V 15 l 1,1 V 0 Z"
       id="path65" />
    <path
       class="dark"
       d="m 0,16 h 176 l -1,-1 H 2.4 Z"
       id="path67" />
    <path
       class="light2"
       d="m 176,0 -8,8 0.4,1 6.6,-6.6 z"
       id="path69" />
  </g>
  <text
     xml:space="preserve"
     style="font-size:32px;line-height:125%;font-family:Minecraft;-inkscape-font-specification:Minecraft;text-align:center;letter-spacing:0px;word-spacing:0px;text-anchor:middle;fill:#ff6633;fill-opacity:1;stroke:#ff6633;stroke-width:9;stroke-linecap:butt;stroke-linejoin:miter;stroke-opacity:1;stroke-miterlimit:4;stroke-dasharray:none;opacity:0.55415501;filter:url(#filter33080)"
     x="160.47273"
     y="50.587654"
     id="text28318"><tspan
       sodipodi:role="line"
       id="tspan28316"
       x="160.47273"
       y="50.587654"
       style="font-size:32px;fill:#ff6633;fill-opacity:1;stroke:#ff6633;stroke-opacity:1;stroke-width:9;stroke-miterlimit:4;stroke-dasharray:none">My SOCIAL LINKS</tspan></text>
  <text
     xml:space="preserve"
     style="font-size:32px;line-height:125%;font-family:Minecraft;-inkscape-font-specification:Minecraft;text-align:center;letter-spacing:0px;word-spacing:0px;text-anchor:middle;fill:#81af63;fill-opacity:1;stroke:#000000;stroke-width:5;stroke-linecap:butt;stroke-linejoin:miter;stroke-opacity:1;stroke-miterlimit:4;stroke-dasharray:none;opacity:1"
     x="160.47273"
     y="50.587654"
     id="text24678"><tspan
       sodipodi:role="line"
       id="tspan24676"
       x="160.47273"
       y="50.587654"
       style="font-size:32px;fill:#81af63;fill-opacity:1;stroke:#000000;stroke-opacity:1;stroke-width:5;stroke-miterlimit:4;stroke-dasharray:none">My SOCIAL LINKS</tspan></text>
  <text
     xml:space="preserve"
     style="font-size:32px;line-height:125%;font-family:Minecraft;-inkscape-font-specification:Minecraft;text-align:center;letter-spacing:0px;word-spacing:0px;text-anchor:middle;fill:#81af63;fill-opacity:1;stroke:none;stroke-width:1px;stroke-linecap:butt;stroke-linejoin:miter;stroke-opacity:1"
     x="160.47273"
     y="50.587654"
     id="text13918"><tspan
       sodipodi:role="line"
       id="tspan13916"
       x="160.47273"
       y="50.587654"
       style="font-size:32px;fill:#81af63;fill-opacity:1;stroke:none">My SOCIAL LINKS</tspan></text>
</svg>
