<svg viewBox="0 0 320 80" width="320" height="80" class="type_dark_blue_orange"><style>.placeholder{fill:none;}.background{fill:none;opacity:0.8;}.glow{fill:yellow;filter:url(#wire-glow);}.wire{fill:white;}.frame{fill:#ff6633;stroke:none;}.dark{fill:#000;opacity:0.2;}.dark2{fill:#000;opacity:0.35;}.light{fill:#fff;opacity:0.2;}.light2{fill:#fff;opacity:0.35;}.type_dark_blue_orange .background{fill:#000022;}</style><defs><filter id="wire-glow"><feGaussianBlur stdDeviation="1.65"></feGaussianBlur></filter></defs><g><rect class="placeholder" width="320" height="80" x="0" y="0"></rect><path class="background" d="M 6,6 H 310 l 4,4 V 74 H 6 Z"></path><path class="glow" d="M 4,4 V 76 H 316 V 9 l -5,-5 z m 2,2 H 310 l 4,4 V 74 H 6 Z"></path><path class="wire" d="M 4,4 V 76 H 316 V 9 l -5,-5 z m 2,2 H 310 l 4,4 V 74 H 6 Z"></path></g><g transform="translate(1, 1)"><path class="frame" d="M 0,16 V 0 h 176 l -8,8 H 8 v 8 z"></path><path class="dark2" d="m 168,8 8,-8 -2.4,1 -6,6 z"></path><path class="dark" d="M 8,8 H 168 L 167.6,7 H 7 Z"></path><path class="dark" d="M 8,16 V 8 L 7,7 v 8 z"></path><path class="dark" d="M 7,15 H 1 l -1,1 h 8 z"></path><path class="light" d="M 0,0 V 16 L 1,15 V 1 Z"></path><path class="light" d="M 1,1 H 173.6 L 176,0 H 0 Z"></path></g><g transform="translate(240,1)"><path class="frame" d="M 8,0 H 40 L 32,8 H 0 Z"></path><path class="light2" d="M 2.4,7 8.4,1 8,0 0,8 Z"></path><path class="dark" d="M 31.6,7 H 2.4 L 0,8 h 32 z"></path><path class="dark2" d="m 37.6,1 -6,6 0.4,1 8,-8 z"></path><path class="light" d="M 8.4,1 H 37.6 L 40,0 H 8 Z"></path></g><g transform="translate(1, 71)"><path class="frame" d="M 0,0 V 8 H 24 L 32,0 Z"></path><path class="dark2" d="m 29.6,1 -6,6 0.4,1 8,-8 z"></path><path class="light" d="M 32,0 H 0 l 1,1 h 28.6 z"></path><path class="dark" d="M 0,8 H 24 L 23.6,7 H 1 Z"></path><path class="light" d="M 0,0 V 8 L 1,7 V 1 Z"></path></g><g transform="translate(143, 63)"><path class="frame" d="m 176,0 -8,8 H 8 l -8,8 h 176 z"></path><path class="light" d="m 8.4,9 h 160 L 168,8 H 8 Z"></path><path class="light2" d="M 2.4,15 8.4,9 8,8 0,16 Z"></path><path class="dark" d="M 175,2.4 V 15 l 1,1 V 0 Z"></path><path class="dark" d="m 0,16 h 176 l -1,-1 H 2.4 Z"></path><path class="light2" d="m 176,0 -8,8 0.4,1 6.6,-6.6 z"></path></g></svg>
